# xmcd CD database file
#
# Track frame offsets:
#	150
#	16735
#	33334
#	47061
#	60786
#	75385
#	89789
#	102889
#	115993
#	134293
#	152595
#	165574
#	178559
#	192164
#	205763
#	219431
#	233058
#	246957
#	260856
#	276597
#	292339
#
# Disc length: 3916 seconds
#
# Revision: 0
# Processed by: cddbd v1.5.2PL0 Copyright (c) Steve Scherf et al.
# Submitted via: CDex 1.70beta1
#
DISCID=290f4a15
DTITLE=Hal Leonard - Volume 59 - Soul Jazz
DYEAR=1900
DGENRE=Jazz
TTITLE0=Cape Verdean Blues - Split
TTITLE1=Cape Verdean Blues - Stereo
TTITLE2=Cold Duck Time - Split
TTITLE3=Cold Duck Time - Stereo
TTITLE4=Dat Dere - Split
TTITLE5=Dat Dere - Stereo
TTITLE6=Freight Trane - Split
TTITLE7=Freight Trane - Stereo
TTITLE8=Jive Samba - Split
TTITLE9=Jive Samba - Stereo
TTITLE10=Mercy Mercy Mercy - Split
TTITLE11=Mercy Mercy Mercy - Stereo
TTITLE12=Nutville - Split
TTITLE13=Nutville - Stereo
TTITLE14=Sticks - Split
TTITLE15=Sticks - Stereo
TTITLE16=Unit 7 - Split
TTITLE17=Unit 7 - Stereo
TTITLE18=Work Song - Split
TTITLE19=Work Song - Stereo
TTITLE20=Tuning Notes
EXTD=
EXTT0=
EXTT1=
EXTT2=
EXTT3=
EXTT4=
EXTT5=
EXTT6=
EXTT7=
EXTT8=
EXTT9=
EXTT10=
EXTT11=
EXTT12=
EXTT13=
EXTT14=
EXTT15=
EXTT16=
EXTT17=
EXTT18=
EXTT19=
EXTT20=
PLAYORDER=
